<svg width="48" height="48" viewBox="0 0 48 48" fill="none" xmlns="http://www.w3.org/2000/svg">
<path fill-rule="evenodd" clip-rule="evenodd" d="M26.3039 0.44751H25.762V22.252H47.5536V21.5833C37.1936 18.9195 29.0284 10.7882 26.3039 0.44751Z" fill="#2360D3"/>
<path fill-rule="evenodd" clip-rule="evenodd" d="M26.2078 21.8046H46.6615C36.8955 19.0112 29.192 11.4427 26.2078 1.74243V21.8046Z" fill="#2360D3"/>
<path fill-rule="evenodd" clip-rule="evenodd" d="M47.553 22.699H25.7608C25.5138 22.699 25.3137 22.4988 25.3137 22.2517V0.447281C25.3137 0.200218 25.5138 0 25.7608 0H26.3033C26.506 0 26.6837 0.137329 26.7356 0.333696C29.4261 10.5461 37.4451 18.5227 47.6646 21.1499C47.8622 21.2012 48.0001 21.379 48.0001 21.5831V22.2517C48.0001 22.4988 47.8 22.699 47.553 22.699Z" fill="#2360D3"/>
<path fill-rule="evenodd" clip-rule="evenodd" d="M47.5542 26.2907V25.7478H25.762V47.5523H26.4303C29.0926 37.1865 37.2193 29.0167 47.5542 26.2907Z" fill="#2360D3"/>
<path fill-rule="evenodd" clip-rule="evenodd" d="M26.2078 26.1956V46.6601C28.9996 36.8886 36.5645 29.1802 46.2594 26.1956H26.2078Z" fill="#2360D3"/>
<path fill-rule="evenodd" clip-rule="evenodd" d="M26.4291 47.9994H25.7608C25.5138 47.9994 25.3137 47.7992 25.3137 47.5521V25.7477C25.3137 25.5012 25.5138 25.301 25.7608 25.301H47.553C47.8 25.301 48.0001 25.5012 48.0001 25.7477V26.2906C48.0001 26.4933 47.8635 26.6711 47.6672 26.7231C37.4599 29.4151 29.4877 37.4392 26.862 47.6638C26.8113 47.8614 26.633 47.9994 26.4291 47.9994Z" fill="#2360D3"/>
<path fill-rule="evenodd" clip-rule="evenodd" d="M21.6965 47.5523H22.2391V25.7478H0.446777V26.4165C10.8067 29.0803 18.972 37.2109 21.6965 47.5523Z" fill="#2360D3"/>
<path fill-rule="evenodd" clip-rule="evenodd" d="M1.33862 26.1956C11.1047 28.989 18.8081 36.5575 21.7924 46.2577V26.1956H1.33862Z" fill="#2360D3"/>
<path fill-rule="evenodd" clip-rule="evenodd" d="M22.2387 48H21.6967C21.4934 48 21.3164 47.8627 21.2644 47.6663C18.5739 37.4533 10.5543 29.4774 0.335434 26.8501C0.137893 26.7988 0 26.621 0 26.4163V25.7483C0 25.5012 0.200106 25.301 0.447031 25.301H22.2387C22.4856 25.301 22.6857 25.5012 22.6857 25.7483V47.5521C22.6857 47.7998 22.4856 48 22.2387 48Z" fill="#2360D3"/>
<path fill-rule="evenodd" clip-rule="evenodd" d="M0.446777 21.7091V22.2513H22.2391V0.44751H21.5708C18.9085 10.8133 10.7824 18.983 0.446777 21.7091Z" fill="#2360D3"/>
<path fill-rule="evenodd" clip-rule="evenodd" d="M1.74146 21.8043H21.7924V1.33911C18.9999 11.1106 11.4363 18.819 1.74146 21.8043Z" fill="#2360D3"/>
<path fill-rule="evenodd" clip-rule="evenodd" d="M22.2387 22.699H0.447031C0.200106 22.699 0 22.4988 0 22.2517V21.7095C0 21.5061 0.136611 21.3283 0.332868 21.277C10.5402 18.5849 18.5117 10.5608 21.1381 0.336263C21.1888 0.138612 21.3671 0 21.571 0H22.2387C22.4856 0 22.6857 0.200217 22.6857 0.447281V22.2517C22.6857 22.4988 22.4856 22.699 22.2387 22.699Z" fill="#2360D3"/>
</svg>
