<svg width="48" height="48" viewBox="0 0 48 48" fill="none" xmlns="http://www.w3.org/2000/svg">
<path fill-rule="evenodd" clip-rule="evenodd" d="M26.304 0.44751H25.7621V22.252H47.5537V21.5833C37.1937 18.9195 29.0285 10.7882 26.304 0.44751Z" fill="white"/>
<path fill-rule="evenodd" clip-rule="evenodd" d="M26.2077 21.8046H46.6614C36.8954 19.0112 29.1919 11.4427 26.2077 1.74243V21.8046Z" fill="white"/>
<path fill-rule="evenodd" clip-rule="evenodd" d="M47.5529 22.699H25.7607C25.5137 22.699 25.3136 22.4988 25.3136 22.2517V0.447281C25.3136 0.200218 25.5137 0 25.7607 0H26.3033C26.5059 0 26.6836 0.137329 26.7355 0.333696C29.4261 10.5461 37.445 18.5227 47.6645 21.1499C47.8621 21.2012 48 21.379 48 21.5831V22.2517C48 22.4988 47.7999 22.699 47.5529 22.699Z" fill="white"/>
<path fill-rule="evenodd" clip-rule="evenodd" d="M47.5543 26.2907V25.7478H25.7621V47.5523H26.4304C29.0927 37.1865 37.2194 29.0167 47.5543 26.2907Z" fill="white"/>
<path fill-rule="evenodd" clip-rule="evenodd" d="M26.2077 26.1956V46.6601C28.9995 36.8886 36.5644 29.1802 46.2593 26.1956H26.2077Z" fill="white"/>
<path fill-rule="evenodd" clip-rule="evenodd" d="M26.429 47.9994H25.7607C25.5137 47.9994 25.3136 47.7992 25.3136 47.5521V25.7477C25.3136 25.5012 25.5137 25.301 25.7607 25.301H47.5529C47.7999 25.301 48 25.5012 48 25.7477V26.2906C48 26.4933 47.8634 26.6711 47.6671 26.7231C37.4598 29.4151 29.4876 37.4392 26.8619 47.6638C26.8112 47.8614 26.6329 47.9994 26.429 47.9994Z" fill="white"/>
<path fill-rule="evenodd" clip-rule="evenodd" d="M21.6965 47.5523H22.2391V25.7478H0.446777V26.4165C10.8067 29.0803 18.972 37.2109 21.6965 47.5523Z" fill="white"/>
<path fill-rule="evenodd" clip-rule="evenodd" d="M1.33871 26.1956C11.1048 28.989 18.8082 36.5575 21.7925 46.2577V26.1956H1.33871Z" fill="white"/>
<path fill-rule="evenodd" clip-rule="evenodd" d="M22.2387 48H21.6967C21.4934 48 21.3164 47.8627 21.2644 47.6663C18.5739 37.4533 10.5543 29.4774 0.335434 26.8501C0.137893 26.7988 0 26.621 0 26.4163V25.7483C0 25.5012 0.200106 25.301 0.447031 25.301H22.2387C22.4856 25.301 22.6857 25.5012 22.6857 25.7483V47.5521C22.6857 47.7998 22.4856 48 22.2387 48Z" fill="white"/>
<path fill-rule="evenodd" clip-rule="evenodd" d="M0.446777 21.7091V22.2513H22.2391V0.44751H21.5708C18.9085 10.8133 10.7824 18.983 0.446777 21.7091Z" fill="white"/>
<path fill-rule="evenodd" clip-rule="evenodd" d="M1.74136 21.8043H21.7923V1.33911C18.9998 11.1106 11.4362 18.819 1.74136 21.8043Z" fill="white"/>
<path fill-rule="evenodd" clip-rule="evenodd" d="M22.2387 22.699H0.447031C0.200106 22.699 0 22.4988 0 22.2517V21.7095C0 21.5061 0.136611 21.3283 0.332868 21.277C10.5402 18.5849 18.5117 10.5608 21.1381 0.336263C21.1888 0.138612 21.3671 0 21.571 0H22.2387C22.4856 0 22.6857 0.200217 22.6857 0.447281V22.2517C22.6857 22.4988 22.4856 22.699 22.2387 22.699Z" fill="white"/>
</svg>
