<svg width="69" height="72" viewBox="0 0 69 72" fill="none" xmlns="http://www.w3.org/2000/svg">
<path fill-rule="evenodd" clip-rule="evenodd" d="M37.8078 0.66748H37.0288V33.2013H68.3508V32.2035C53.46 28.229 41.7238 16.0966 37.8078 0.66748Z" fill="url(#paint0_linear_77_35)"/>
<path fill-rule="evenodd" clip-rule="evenodd" d="M37.6694 32.5338H67.0684C53.0313 28.3658 41.9588 17.0731 37.6694 2.59961V32.5338Z" fill="url(#paint1_linear_77_35)"/>
<path fill-rule="evenodd" clip-rule="evenodd" d="M68.3497 33.8685H37.0268C36.6719 33.8685 36.3843 33.5698 36.3843 33.2012V0.667374C36.3843 0.298739 36.6719 0 37.0268 0H37.8067C38.098 0 38.3534 0.204904 38.428 0.497898C42.2952 15.7355 53.8212 27.6371 68.5101 31.5571C68.794 31.6337 68.9922 31.899 68.9922 32.2034V33.2012C68.9922 33.5698 68.7046 33.8685 68.3497 33.8685Z" fill="url(#paint2_linear_77_35)"/>
<path fill-rule="evenodd" clip-rule="evenodd" d="M68.3517 39.2278V38.4177H37.0288V70.9515H37.9894C41.816 55.4851 53.4969 43.2952 68.3517 39.2278Z" fill="url(#paint3_linear_77_35)"/>
<path fill-rule="evenodd" clip-rule="evenodd" d="M37.6694 39.0857V69.6202C41.6823 55.0404 52.5556 43.539 66.4904 39.0857H37.6694Z" fill="url(#paint4_linear_77_35)"/>
<path fill-rule="evenodd" clip-rule="evenodd" d="M37.9874 71.6184H37.0268C36.6719 71.6184 36.3843 71.3197 36.3843 70.9511V38.4173C36.3843 38.0496 36.6719 37.7509 37.0268 37.7509H68.3497C68.7046 37.7509 68.9922 38.0496 68.9922 38.4173V39.2273C68.9922 39.5299 68.7959 39.7951 68.5138 39.8727C53.8424 43.8894 42.3837 55.8619 38.6096 71.1177C38.5368 71.4126 38.2805 71.6184 37.9874 71.6184Z" fill="url(#paint5_linear_77_35)"/>
<path fill-rule="evenodd" clip-rule="evenodd" d="M31.1851 70.9515H31.965V38.4177H0.64209V39.4154C15.5329 43.39 27.269 55.5215 31.1851 70.9515Z" fill="url(#paint6_linear_77_35)"/>
<path fill-rule="evenodd" clip-rule="evenodd" d="M1.92407 39.0857C15.9612 43.2537 27.0336 54.5464 31.3231 69.0199V39.0857H1.92407Z" fill="url(#paint7_linear_77_35)"/>
<path fill-rule="evenodd" clip-rule="evenodd" d="M31.9645 71.6194H31.1855C30.8933 71.6194 30.6389 71.4145 30.5642 71.1215C26.697 55.8829 15.1701 43.9822 0.482132 40.0622C0.1982 39.9856 0 39.7204 0 39.415V38.4182C0 38.0496 0.28762 37.7509 0.642535 37.7509H31.9645C32.3194 37.7509 32.607 38.0496 32.607 38.4182V70.9511C32.607 71.3207 32.3194 71.6194 31.9645 71.6194Z" fill="url(#paint8_linear_77_35)"/>
<path fill-rule="evenodd" clip-rule="evenodd" d="M0.64209 32.3912V33.2003H31.965V0.66748H31.0044C27.1778 16.1339 15.4978 28.3238 0.64209 32.3912Z" fill="url(#paint9_linear_77_35)"/>
<path fill-rule="evenodd" clip-rule="evenodd" d="M2.50293 32.5338H31.323V1.99829C27.3092 16.5781 16.4377 28.0795 2.50293 32.5338Z" fill="url(#paint10_linear_77_35)"/>
<path fill-rule="evenodd" clip-rule="evenodd" d="M31.9645 33.8685H0.642535C0.28762 33.8685 0 33.5698 0 33.2012V32.3921C0 32.0885 0.196356 31.8233 0.478444 31.7467C15.1498 27.73 26.6076 15.7575 30.3826 0.501728C30.4554 0.206819 30.7117 0 31.0049 0H31.9645C32.3194 0 32.607 0.298739 32.607 0.667374V33.2012C32.607 33.5698 32.3194 33.8685 31.9645 33.8685Z" fill="url(#paint11_linear_77_35)"/>
<defs>
<linearGradient id="paint0_linear_77_35" x1="37.4828" y1="33.3742" x2="67.4659" y2="-0.223536" gradientUnits="userSpaceOnUse">
<stop stop-color="#1A1B41"/>
<stop offset="0.318603" stop-color="#2F3A8F"/>
<stop offset="1" stop-color="#4C5FD5"/>
</linearGradient>
<linearGradient id="paint1_linear_77_35" x1="38.0956" y1="32.6929" x2="65.6153" y2="1.23515" gradientUnits="userSpaceOnUse">
<stop stop-color="#1A1B41"/>
<stop offset="0.318603" stop-color="#2F3A8F"/>
<stop offset="1" stop-color="#4C5FD5"/>
</linearGradient>
<linearGradient id="paint2_linear_77_35" x1="36.8569" y1="34.0485" x2="68.07" y2="-0.928481" gradientUnits="userSpaceOnUse">
<stop stop-color="#1A1B41"/>
<stop offset="0.318603" stop-color="#2F3A8F"/>
<stop offset="1" stop-color="#4C5FD5"/>
</linearGradient>
<linearGradient id="paint3_linear_77_35" x1="37.4828" y1="71.1244" x2="67.4658" y2="37.5258" gradientUnits="userSpaceOnUse">
<stop stop-color="#1A1B41"/>
<stop offset="0.318603" stop-color="#2F3A8F"/>
<stop offset="1" stop-color="#4C5FD5"/>
</linearGradient>
<linearGradient id="paint4_linear_77_35" x1="38.0872" y1="69.7825" x2="66.2855" y2="38.8041" gradientUnits="userSpaceOnUse">
<stop stop-color="#1A1B41"/>
<stop offset="0.318603" stop-color="#2F3A8F"/>
<stop offset="1" stop-color="#4C5FD5"/>
</linearGradient>
<linearGradient id="paint5_linear_77_35" x1="36.8569" y1="71.7984" x2="68.0691" y2="36.8215" gradientUnits="userSpaceOnUse">
<stop stop-color="#1A1B41"/>
<stop offset="0.318603" stop-color="#2F3A8F"/>
<stop offset="1" stop-color="#4C5FD5"/>
</linearGradient>
<linearGradient id="paint6_linear_77_35" x1="1.09609" y1="71.1244" x2="31.0791" y2="37.5258" gradientUnits="userSpaceOnUse">
<stop stop-color="#1A1B41"/>
<stop offset="0.318603" stop-color="#2F3A8F"/>
<stop offset="1" stop-color="#4C5FD5"/>
</linearGradient>
<linearGradient id="paint7_linear_77_35" x1="2.35019" y1="69.179" x2="29.8699" y2="37.7212" gradientUnits="userSpaceOnUse">
<stop stop-color="#1A1B41"/>
<stop offset="0.318603" stop-color="#2F3A8F"/>
<stop offset="1" stop-color="#4C5FD5"/>
</linearGradient>
<linearGradient id="paint8_linear_77_35" x1="0.472618" y1="71.7994" x2="31.6859" y2="36.8233" gradientUnits="userSpaceOnUse">
<stop stop-color="#1A1B41"/>
<stop offset="0.318603" stop-color="#2F3A8F"/>
<stop offset="1" stop-color="#4C5FD5"/>
</linearGradient>
<linearGradient id="paint9_linear_77_35" x1="1.09609" y1="33.3732" x2="31.0781" y2="-0.225259" gradientUnits="userSpaceOnUse">
<stop stop-color="#1A1B41"/>
<stop offset="0.318603" stop-color="#2F3A8F"/>
<stop offset="1" stop-color="#4C5FD5"/>
</linearGradient>
<linearGradient id="paint10_linear_77_35" x1="2.92066" y1="32.6961" x2="31.1201" y2="1.71846" gradientUnits="userSpaceOnUse">
<stop stop-color="#1A1B41"/>
<stop offset="0.318603" stop-color="#2F3A8F"/>
<stop offset="1" stop-color="#4C5FD5"/>
</linearGradient>
<linearGradient id="paint11_linear_77_35" x1="0.472618" y1="34.0485" x2="31.6858" y2="-0.927599" gradientUnits="userSpaceOnUse">
<stop stop-color="#1A1B41"/>
<stop offset="0.318603" stop-color="#2F3A8F"/>
<stop offset="1" stop-color="#4C5FD5"/>
</linearGradient>
</defs>
</svg>
