<svg width="48" height="48" viewBox="0 0 48 48" fill="none" xmlns="http://www.w3.org/2000/svg">
<path fill-rule="evenodd" clip-rule="evenodd" d="M26.3039 0.447266H25.762V22.2517H47.5536V21.583C37.1936 18.9193 29.0284 10.788 26.3039 0.447266Z" fill="white"/>
<path fill-rule="evenodd" clip-rule="evenodd" d="M26.2078 21.8044H46.6615C36.8955 19.0109 29.192 11.4425 26.2078 1.74219V21.8044Z" fill="white"/>
<path fill-rule="evenodd" clip-rule="evenodd" d="M47.553 22.699H25.7608C25.5138 22.699 25.3137 22.4988 25.3137 22.2517V0.447281C25.3137 0.200218 25.5138 0 25.7608 0H26.3033C26.506 0 26.6837 0.137329 26.7356 0.333696C29.4261 10.5461 37.4451 18.5227 47.6646 21.1499C47.8622 21.2012 48.0001 21.379 48.0001 21.5831V22.2517C48.0001 22.4988 47.8 22.699 47.553 22.699Z" fill="white"/>
<path fill-rule="evenodd" clip-rule="evenodd" d="M47.5542 26.2909V25.748H25.762V47.5525H26.4303C29.0926 37.1868 37.2193 29.017 47.5542 26.2909Z" fill="white"/>
<path fill-rule="evenodd" clip-rule="evenodd" d="M26.2078 26.1958V46.6603C28.9996 36.8888 36.5645 29.1805 46.2594 26.1958H26.2078Z" fill="white"/>
<path fill-rule="evenodd" clip-rule="evenodd" d="M26.4291 47.9996H25.7608C25.5138 47.9996 25.3137 47.7994 25.3137 47.5524V25.7479C25.3137 25.5015 25.5138 25.3013 25.7608 25.3013H47.553C47.8 25.3013 48.0001 25.5015 48.0001 25.7479V26.2908C48.0001 26.4936 47.8635 26.6713 47.6672 26.7233C37.4599 29.4154 29.4877 37.4395 26.862 47.664C26.8113 47.8617 26.633 47.9996 26.4291 47.9996Z" fill="white"/>
<path fill-rule="evenodd" clip-rule="evenodd" d="M21.6965 47.5525H22.2391V25.748H0.446777V26.4167C10.8067 29.0805 18.972 37.2111 21.6965 47.5525Z" fill="white"/>
<path fill-rule="evenodd" clip-rule="evenodd" d="M1.33862 26.1958C11.1047 28.9892 18.8081 36.5577 21.7924 46.258V26.1958H1.33862Z" fill="white"/>
<path fill-rule="evenodd" clip-rule="evenodd" d="M22.2387 48.0003H21.6967C21.4934 48.0003 21.3164 47.863 21.2644 47.6666C18.5739 37.4536 10.5543 29.4776 0.335434 26.8504C0.137893 26.7991 0 26.6213 0 26.4166V25.7486C0 25.5015 0.200106 25.3013 0.447031 25.3013H22.2387C22.4856 25.3013 22.6857 25.5015 22.6857 25.7486V47.5524C22.6857 47.8001 22.4856 48.0003 22.2387 48.0003Z" fill="white"/>
<path fill-rule="evenodd" clip-rule="evenodd" d="M0.446777 21.7088V22.2511H22.2391V0.447266H21.5708C18.9085 10.813 10.7824 18.9828 0.446777 21.7088Z" fill="white"/>
<path fill-rule="evenodd" clip-rule="evenodd" d="M1.74146 21.8045H21.7924V1.33936C18.9999 11.1109 11.4363 18.8192 1.74146 21.8045Z" fill="white"/>
<path fill-rule="evenodd" clip-rule="evenodd" d="M22.2387 22.699H0.447031C0.200106 22.699 0 22.4988 0 22.2517V21.7095C0 21.5061 0.136611 21.3283 0.332868 21.277C10.5402 18.5849 18.5117 10.5608 21.1381 0.336263C21.1888 0.138612 21.3671 0 21.571 0H22.2387C22.4856 0 22.6857 0.200217 22.6857 0.447281V22.2517C22.6857 22.4988 22.4856 22.699 22.2387 22.699Z" fill="white"/>
</svg>
